# xmcd CD database file
#
# Track frame offsets:
#	150
#	93262
#	139727
#	177112
#	214387
#	258667
#
# Disc length: 4198 seconds
#
# Revision: 0
# Processed by: cddbd v1.4PL0 Copyright (c) Steve Scherf et al.
# Submitted via: CDex 1.50beta8
#
DISCID=54106406
DTITLE=V.S.O.P. The Quintet - Live Under The Sky [CD1)
DYEAR=1979
DGENRE=Jazz
TTITLE0=One Of Another Kind
TTITLE1=Teardrop
TTITLE2=Pee Wee
TTITLE3=Para Oriente
TTITLE4=Fragile
TTITLE5=Domo
EXTD=YEAR: 1979
EXTT0=
EXTT1=
EXTT2=
EXTT3=
EXTT4=
EXTT5=
PLAYORDER=
